<mxfile host="app.diagrams.net" modified="2022-08-09T17:10:52.872Z" agent="5.0 (Windows NT 10.0; Win64; x64) AppleWebKit/537.36 (KHTML, like Gecko) Chrome/104.0.0.0 Safari/537.36" etag="7BR_Kp5CXySYMoC5gUEp" version="20.2.3" type="github">
  <diagram id="Ls4yz5-yRHvdPoFZmP_N" name="Halaman-1">
    <mxGraphModel dx="1221" dy="672" grid="1" gridSize="10" guides="1" tooltips="1" connect="1" arrows="1" fold="1" page="1" pageScale="1" pageWidth="827" pageHeight="1169" math="0" shadow="0">
      <root>
        <mxCell id="0" />
        <mxCell id="1" parent="0" />
        <mxCell id="1eiF3LsraLQYIEyhDJzi-1" style="edgeStyle=orthogonalEdgeStyle;rounded=0;orthogonalLoop=1;jettySize=auto;html=1;entryX=0.5;entryY=0;entryDx=0;entryDy=0;fontSize=15;" edge="1" parent="1" source="1eiF3LsraLQYIEyhDJzi-2" target="1eiF3LsraLQYIEyhDJzi-3">
          <mxGeometry relative="1" as="geometry" />
        </mxCell>
        <mxCell id="1eiF3LsraLQYIEyhDJzi-2" value="" style="ellipse;whiteSpace=wrap;html=1;aspect=fixed;strokeColor=#000000;fillColor=#000000;" vertex="1" parent="1">
          <mxGeometry x="195" y="50" width="20" height="20" as="geometry" />
        </mxCell>
        <mxCell id="1eiF3LsraLQYIEyhDJzi-3" value="Membuka Aplikasi" style="rounded=1;whiteSpace=wrap;html=1;strokeColor=#000000;fillColor=#FFFFFF;gradientColor=none;fontSize=15;" vertex="1" parent="1">
          <mxGeometry x="140" y="120" width="130" height="50" as="geometry" />
        </mxCell>
        <mxCell id="1eiF3LsraLQYIEyhDJzi-48" style="edgeStyle=orthogonalEdgeStyle;rounded=0;orthogonalLoop=1;jettySize=auto;html=1;entryX=0;entryY=0.5;entryDx=0;entryDy=0;" edge="1" parent="1" source="1eiF3LsraLQYIEyhDJzi-10" target="1eiF3LsraLQYIEyhDJzi-25">
          <mxGeometry relative="1" as="geometry">
            <Array as="points">
              <mxPoint x="205" y="295" />
            </Array>
          </mxGeometry>
        </mxCell>
        <mxCell id="1eiF3LsraLQYIEyhDJzi-10" value="Memilih Menu&amp;nbsp;&lt;br&gt;Mulai AR" style="rounded=1;whiteSpace=wrap;html=1;strokeColor=#000000;fillColor=#FFFFFF;gradientColor=none;fontSize=15;" vertex="1" parent="1">
          <mxGeometry x="140" y="200" width="130" height="50" as="geometry" />
        </mxCell>
        <mxCell id="1eiF3LsraLQYIEyhDJzi-13" value="Memindai Marker" style="rounded=1;whiteSpace=wrap;html=1;strokeColor=#000000;fillColor=#FFFFFF;gradientColor=none;fontSize=15;" vertex="1" parent="1">
          <mxGeometry x="140" y="320" width="130" height="50" as="geometry" />
        </mxCell>
        <mxCell id="1eiF3LsraLQYIEyhDJzi-23" value="Splash Screen" style="rounded=1;whiteSpace=wrap;html=1;strokeColor=#000000;fillColor=#FFFFFF;gradientColor=none;fontSize=15;" vertex="1" parent="1">
          <mxGeometry x="560" y="120" width="130" height="50" as="geometry" />
        </mxCell>
        <mxCell id="1eiF3LsraLQYIEyhDJzi-24" value="Home" style="rounded=1;whiteSpace=wrap;html=1;strokeColor=#000000;fillColor=#FFFFFF;gradientColor=none;fontSize=15;" vertex="1" parent="1">
          <mxGeometry x="560" y="200" width="130" height="50" as="geometry" />
        </mxCell>
        <mxCell id="1eiF3LsraLQYIEyhDJzi-37" value="" style="endArrow=classic;html=1;rounded=0;fontSize=15;entryX=0.5;entryY=0;entryDx=0;entryDy=0;exitX=0.5;exitY=1;exitDx=0;exitDy=0;" edge="1" parent="1" source="1eiF3LsraLQYIEyhDJzi-23" target="1eiF3LsraLQYIEyhDJzi-24">
          <mxGeometry width="50" height="50" relative="1" as="geometry">
            <mxPoint x="140" y="290" as="sourcePoint" />
            <mxPoint x="190" y="240" as="targetPoint" />
          </mxGeometry>
        </mxCell>
        <mxCell id="1eiF3LsraLQYIEyhDJzi-38" value="" style="endArrow=classic;html=1;rounded=0;fontSize=15;exitX=1;exitY=0.5;exitDx=0;exitDy=0;entryX=0;entryY=0.5;entryDx=0;entryDy=0;" edge="1" parent="1" source="1eiF3LsraLQYIEyhDJzi-3" target="1eiF3LsraLQYIEyhDJzi-23">
          <mxGeometry width="50" height="50" relative="1" as="geometry">
            <mxPoint x="300" y="220" as="sourcePoint" />
            <mxPoint x="350" y="170" as="targetPoint" />
          </mxGeometry>
        </mxCell>
        <mxCell id="1eiF3LsraLQYIEyhDJzi-39" value="" style="endArrow=classic;html=1;rounded=0;fontSize=15;exitX=0;exitY=0.5;exitDx=0;exitDy=0;entryX=1;entryY=0.5;entryDx=0;entryDy=0;" edge="1" parent="1" source="1eiF3LsraLQYIEyhDJzi-24" target="1eiF3LsraLQYIEyhDJzi-10">
          <mxGeometry width="50" height="50" relative="1" as="geometry">
            <mxPoint x="300" y="220" as="sourcePoint" />
            <mxPoint x="350" y="170" as="targetPoint" />
          </mxGeometry>
        </mxCell>
        <mxCell id="1eiF3LsraLQYIEyhDJzi-41" style="edgeStyle=orthogonalEdgeStyle;rounded=0;orthogonalLoop=1;jettySize=auto;html=1;fontSize=15;entryX=1;entryY=0.5;entryDx=0;entryDy=0;" edge="1" parent="1" source="1eiF3LsraLQYIEyhDJzi-25" target="1eiF3LsraLQYIEyhDJzi-13">
          <mxGeometry relative="1" as="geometry">
            <mxPoint x="625" y="380" as="targetPoint" />
            <Array as="points">
              <mxPoint x="625" y="345" />
            </Array>
          </mxGeometry>
        </mxCell>
        <mxCell id="1eiF3LsraLQYIEyhDJzi-42" style="edgeStyle=orthogonalEdgeStyle;rounded=0;orthogonalLoop=1;jettySize=auto;html=1;fontSize=15;entryX=0;entryY=0.5;entryDx=0;entryDy=0;" edge="1" parent="1" source="1eiF3LsraLQYIEyhDJzi-13" target="1eiF3LsraLQYIEyhDJzi-27">
          <mxGeometry relative="1" as="geometry">
            <mxPoint x="205" y="440" as="targetPoint" />
            <Array as="points">
              <mxPoint x="205" y="410" />
              <mxPoint x="560" y="410" />
            </Array>
          </mxGeometry>
        </mxCell>
        <mxCell id="1eiF3LsraLQYIEyhDJzi-49" value="User" style="swimlane;" vertex="1" parent="1">
          <mxGeometry x="90" y="10" width="310" height="500" as="geometry" />
        </mxCell>
        <mxCell id="1eiF3LsraLQYIEyhDJzi-50" value="Aplikasi" style="swimlane;" vertex="1" parent="1">
          <mxGeometry x="480" y="10" width="310" height="500" as="geometry" />
        </mxCell>
        <mxCell id="1eiF3LsraLQYIEyhDJzi-52" style="edgeStyle=orthogonalEdgeStyle;rounded=0;orthogonalLoop=1;jettySize=auto;html=1;" edge="1" parent="1eiF3LsraLQYIEyhDJzi-50" source="1eiF3LsraLQYIEyhDJzi-27" target="1eiF3LsraLQYIEyhDJzi-51">
          <mxGeometry relative="1" as="geometry" />
        </mxCell>
        <mxCell id="1eiF3LsraLQYIEyhDJzi-27" value="Menampilkan Objek 3D" style="rounded=1;whiteSpace=wrap;html=1;strokeColor=#000000;fillColor=#FFFFFF;gradientColor=none;fontSize=15;" vertex="1" parent="1eiF3LsraLQYIEyhDJzi-50">
          <mxGeometry x="80" y="380" width="130" height="50" as="geometry" />
        </mxCell>
        <mxCell id="1eiF3LsraLQYIEyhDJzi-25" value="Menampilkan Kamera" style="rounded=1;whiteSpace=wrap;html=1;strokeColor=#000000;fillColor=#FFFFFF;gradientColor=none;fontSize=15;" vertex="1" parent="1eiF3LsraLQYIEyhDJzi-50">
          <mxGeometry x="80" y="260" width="130" height="50" as="geometry" />
        </mxCell>
        <mxCell id="1eiF3LsraLQYIEyhDJzi-51" value="" style="ellipse;whiteSpace=wrap;html=1;aspect=fixed;strokeColor=#000000;fillColor=#000000;" vertex="1" parent="1eiF3LsraLQYIEyhDJzi-50">
          <mxGeometry x="135" y="460" width="20" height="20" as="geometry" />
        </mxCell>
      </root>
    </mxGraphModel>
  </diagram>
</mxfile>
